<svg width="16" height="16" viewBox="0 0 32 32" fill="none" xmlns="http://www.w3.org/2000/svg">
  <!-- Document background -->
  <rect x="6" y="4" width="16" height="20" rx="2" fill="#3B82F6" stroke="#1E40AF" stroke-width="1"/>
  
  <!-- Document fold corner -->
  <path d="M18 4 L18 8 L22 8 L22 6.83 L19.17 4 L18 4 Z" fill="#1E40AF"/>
  
  <!-- Text lines -->
  <rect x="8" y="8" width="8" height="1" rx="0.5" fill="white"/>
  <rect x="8" y="10" width="10" height="1" rx="0.5" fill="white"/>
  <rect x="8" y="12" width="6" height="1" rx="0.5" fill="white"/>
  <rect x="8" y="14" width="9" height="1" rx="0.5" fill="white"/>
  <rect x="8" y="16" width="7" height="1" rx="0.5" fill="white"/>
  
  <!-- Processing/gear icon -->
  <circle cx="25" cy="25" r="6" fill="#10B981" stroke="#059669" stroke-width="1"/>
  <circle cx="25" cy="25" r="2" fill="white"/>
  
  <!-- Gear teeth -->
  <rect x="24" y="20" width="2" height="2" fill="#10B981"/>
  <rect x="24" y="28" width="2" height="2" fill="#10B981"/>
  <rect x="20" y="24" width="2" height="2" fill="#10B981"/>
  <rect x="28" y="24" width="2" height="2" fill="#10B981"/>
</svg>
